# xmcd
#
# Track frame offsets:
# 150
# 12105
# 21525
# 37470
# 48615
# 60820
# 74305
# 88860
# 96945
# 113350
# 123170
# 135185
# 148000
# 164020
#
# Disc length: 2361 seconds
#
#
# Revision: 0
# Processed by: cddbd v1.5.1PL0 Copyright (c) Steve Scherf et al.
# Submitted via: FreeRIP 2.92 
#
DISCID=bf09370e
DTITLE=The Moron Brothers - River Rat
DYEAR=2004
DGENRE=Comedy
TTITLE0=Shawnee Creek
TTITLE1=Bin Ladin
TTITLE2=Dixie
TTITLE3=Uncle Lee
TTITLE4=River Rat
TTITLE5=Ripley
TTITLE6=Milk Cow Boogie
TTITLE7=Uncle Billy Pat
TTITLE8=Frauline
TTITLE9=St. Anne's Reel
TTITLE10=Best Present
TTITLE11=Must Come In At the Door
TTITLE12=Grandfather's Clock
TTITLE13=This World Is Not My Home
EXTD=
EXTT0=
EXTT1=
EXTT2=
EXTT3=
EXTT4=
EXTT5=
EXTT6=
EXTT7=
EXTT8=
EXTT9=
EXTT10=
EXTT11=
EXTT12=
EXTT13=
PLAYORDER=
